<svg width="52" height="52" viewBox="0 0 52 52" fill="none" xmlns="http://www.w3.org/2000/svg">
<path d="M52 26C52 40.3594 40.3594 52 26 52C11.6406 52 0 40.3594 0 26C0 11.6406 11.6406 0 26 0C40.3594 0 52 11.6406 52 26Z" fill="#536F82"/>
<path d="M39.4765 26.0569C39.4765 34.035 33.1664 40.5025 25.3825 40.5025C17.5987 40.5025 11.2886 34.035 11.2886 26.0569C11.2886 18.0789 17.5987 11.6114 25.3825 11.6114C33.1664 11.6114 39.4765 18.0789 39.4765 26.0569Z" fill="white"/>
<path d="M35.9531 26.0569C35.9531 32.0405 31.2205 36.8911 25.3826 36.8911C19.5447 36.8911 14.8121 32.0405 14.8121 26.0569C14.8121 20.0734 19.5447 15.2228 25.3826 15.2228C31.2205 15.2228 35.9531 20.0734 35.9531 26.0569Z" fill="#536F82"/>
<path fill-rule="evenodd" clip-rule="evenodd" d="M25.3826 36.3911C30.9328 36.3911 35.4531 31.776 35.4531 26.0569C35.4531 20.3379 30.9328 15.7228 25.3826 15.7228C19.8324 15.7228 15.3121 20.3379 15.3121 26.0569C15.3121 31.776 19.8324 36.3911 25.3826 36.3911ZM25.3826 36.8911C31.2205 36.8911 35.9531 32.0405 35.9531 26.0569C35.9531 20.0734 31.2205 15.2228 25.3826 15.2228C19.5447 15.2228 14.8121 20.0734 14.8121 26.0569C14.8121 32.0405 19.5447 36.8911 25.3826 36.8911Z" fill="white"/>
<path d="M22.5637 10C22.5637 8.89543 23.4592 8 24.5637 8H26.2013C27.3059 8 28.2013 8.89543 28.2013 10V11.2967C28.2013 12.4013 27.3059 13.2967 26.2013 13.2967H24.5637C23.4591 13.2967 22.5637 12.4013 22.5637 11.2967V10Z" fill="white"/>
<path d="M10 28.946C8.89543 28.946 8 28.0506 8 26.946L8 25.1678C8 24.0632 8.89543 23.1678 10 23.1678L11.1678 23.1678C12.2724 23.1678 13.1678 24.0633 13.1678 25.1678L13.1678 26.946C13.1678 28.0506 12.2724 28.946 11.1678 28.946L10 28.946Z" fill="white"/>
<path fill-rule="evenodd" clip-rule="evenodd" d="M10.5839 28.111C10.7866 28.071 10.982 28.0106 11.1678 27.932C11.6677 27.7206 12.0985 27.3774 12.4164 26.946C12.6126 26.6799 12.7659 26.3801 12.8661 26.0569C12.7659 25.7338 12.6126 25.434 12.4164 25.1678C12.0985 24.7365 11.6677 24.3933 11.1678 24.1818C10.982 24.1032 10.7866 24.0428 10.5839 24.0028C10.3812 24.0428 10.1858 24.1032 10 24.1818C9.50004 24.3933 9.06933 24.7365 8.75136 25.1678C8.55515 25.434 8.40187 25.7338 8.30173 26.0569C8.40186 26.3801 8.55515 26.6799 8.75136 26.946C9.06933 27.3774 9.50003 27.7206 10 27.932C10.1858 28.0106 10.3812 28.071 10.5839 28.111ZM8 26.946C8 28.0506 8.89543 28.946 10 28.946L11.1678 28.946C12.2724 28.946 13.1678 28.0506 13.1678 26.946L13.1678 25.1678C13.1678 24.0633 12.2724 23.1678 11.1678 23.1678L10 23.1678C8.89543 23.1678 8 24.0632 8 25.1678L8 26.946Z" fill="white"/>
<path d="M41 23.1678C42.1046 23.1678 43 24.0633 43 25.1678L43 26.9461C43 28.0506 42.1046 28.9461 41 28.9461L39.8322 28.9461C38.7276 28.9461 37.8322 28.0506 37.8322 26.9461L37.8322 25.1678C37.8322 24.0633 38.7276 23.1678 39.8322 23.1678L41 23.1678Z" fill="white"/>
<path fill-rule="evenodd" clip-rule="evenodd" d="M40.4161 24.0029C40.2134 24.0428 40.018 24.1033 39.8322 24.1818C39.3323 24.3933 38.9015 24.7365 38.5836 25.1678C38.3874 25.434 38.2341 25.7338 38.1339 26.057C38.2341 26.3801 38.3874 26.6799 38.5836 26.9461C38.9015 27.3774 39.3322 27.7206 39.8322 27.9321C40.018 28.0107 40.2134 28.0711 40.4161 28.1111C40.6188 28.0711 40.8142 28.0107 41 27.9321C41.5 27.7206 41.9307 27.3774 42.2486 26.9461C42.4449 26.6799 42.5981 26.3801 42.6983 26.057C42.5981 25.7338 42.4449 25.434 42.2486 25.1678C41.9307 24.7365 41.5 24.3933 41 24.1818C40.8142 24.1033 40.6188 24.0428 40.4161 24.0029ZM43 25.1678C43 24.0633 42.1046 23.1678 41 23.1678L39.8322 23.1678C38.7276 23.1678 37.8322 24.0633 37.8322 25.1678L37.8322 26.9461C37.8322 28.0506 38.7276 28.9461 39.8322 28.9461L41 28.9461C42.1046 28.9461 43 28.0506 43 26.9461L43 25.1678Z" fill="white"/>
<path d="M34.4521 12.8021C35.2234 12.0115 36.4741 12.0115 37.2454 12.8021L38.4384 14.0249C39.2098 14.8155 39.2098 16.0973 38.4384 16.888L37.5776 17.7702C36.8063 18.5608 35.5556 18.5608 34.7843 17.7702L33.5913 16.5475C32.8199 15.7569 32.8199 14.475 33.5913 13.6844L34.4521 12.8021Z" fill="white"/>
<path d="M12.6853 16.888C11.9139 16.0974 11.9139 14.8156 12.6853 14.025L13.8783 12.8022C14.6496 12.0116 15.9003 12.0116 16.6716 12.8022L17.5324 13.6845C18.3038 14.4751 18.3038 15.7569 17.5324 16.5475L16.3394 17.7703C15.5681 18.5609 14.3174 18.5609 13.5461 17.7703L12.6853 16.888Z" fill="white"/>
<path d="M28.5601 42C28.5601 43.1046 27.6646 44 26.5601 44L24.9225 44C23.8179 44 22.9225 43.1046 22.9225 42L22.9225 40.7033C22.9225 39.5987 23.8179 38.7033 24.9225 38.7033L26.5601 38.7033C27.6646 38.7033 28.5601 39.5987 28.5601 40.7033L28.5601 42Z" fill="white"/>
<path fill-rule="evenodd" clip-rule="evenodd" d="M27.8522 41.3516C27.8023 41.1248 27.7266 40.9076 27.6285 40.7033C27.3899 40.2063 27.0184 39.7851 26.5601 39.486C26.3104 39.323 26.035 39.1962 25.7413 39.1131C25.4475 39.1962 25.1721 39.323 24.9225 39.486C24.4641 39.7851 24.0926 40.2063 23.854 40.7033C23.7559 40.9076 23.6803 41.1248 23.6303 41.3516C23.6803 41.5785 23.7559 41.7956 23.854 42C24.0926 42.497 24.4641 42.9182 24.9225 43.2173C25.1721 43.3803 25.4475 43.507 25.7413 43.5902C26.035 43.507 26.3104 43.3803 26.5601 43.2173C27.0184 42.9182 27.3899 42.497 27.6285 42C27.7266 41.7956 27.8023 41.5785 27.8522 41.3516ZM26.5601 44C27.6646 44 28.5601 43.1046 28.5601 42L28.5601 40.7033C28.5601 39.5987 27.6646 38.7033 26.5601 38.7033L24.9225 38.7033C23.8179 38.7033 22.9225 39.5987 22.9225 40.7033L22.9225 42C22.9225 43.1046 23.8179 44 24.9225 44L26.5601 44Z" fill="white"/>
<path d="M16.6716 39.1979C15.9002 39.9885 14.6496 39.9885 13.8782 39.1979L12.6852 37.9751C11.9138 37.1845 11.9138 35.9027 12.6852 35.112L13.546 34.2298C14.3174 33.4392 15.568 33.4392 16.3394 34.2298L17.5324 35.4525C18.3038 36.2431 18.3038 37.525 17.5324 38.3156L16.6716 39.1979Z" fill="white"/>
<path d="M40.0493 38.6375C40.6451 39.2481 40.6451 40.2382 40.0493 40.8488V40.8488C39.4535 41.4595 38.4876 41.4595 37.8918 40.8488L29.9132 32.6712C29.3174 32.0606 29.3174 31.0705 29.9132 30.4599V30.4599C30.509 29.8492 31.4749 29.8492 32.0707 30.4599L40.0493 38.6375Z" fill="white"/>
<path fill-rule="evenodd" clip-rule="evenodd" d="M36.4951 42.2804L28.5165 34.1027C27.1493 32.7015 27.1493 30.4296 28.5165 29.0283C29.8836 27.6271 32.1002 27.6271 33.4674 29.0283L41.4459 37.206C42.8131 38.6072 42.8131 40.8791 41.4459 42.2804C40.0788 43.6816 37.8622 43.6816 36.4951 42.2804ZM40.0493 40.8488C40.645 40.2382 40.645 39.2481 40.0493 38.6375L32.0707 30.4599C31.4749 29.8492 30.5089 29.8492 29.9132 30.4599C29.3174 31.0705 29.3174 32.0606 29.9132 32.6712L37.8918 40.8488C38.4875 41.4595 39.4535 41.4595 40.0493 40.8488Z" fill="#536F82"/>
<path d="M33.3692 26.057C33.3692 30.5779 29.7934 34.2428 25.3826 34.2428C20.9717 34.2428 17.396 30.5779 17.396 26.057C17.396 21.5361 20.9717 17.8712 25.3826 17.8712C29.7934 17.8712 33.3692 21.5361 33.3692 26.057Z" fill="#536F82"/>
<path fill-rule="evenodd" clip-rule="evenodd" d="M25.3826 32.2428C28.6427 32.2428 31.3692 29.52 31.3692 26.057C31.3692 22.5939 28.6427 19.8712 25.3826 19.8712C22.1224 19.8712 19.396 22.5939 19.396 26.057C19.396 29.52 22.1224 32.2428 25.3826 32.2428ZM25.3826 34.2428C29.7934 34.2428 33.3692 30.5779 33.3692 26.057C33.3692 21.5361 29.7934 17.8712 25.3826 17.8712C20.9717 17.8712 17.396 21.5361 17.396 26.057C17.396 30.5779 20.9717 34.2428 25.3826 34.2428Z" fill="white"/>
</svg>
