<svg width="52" height="53" viewBox="0 0 52 53" fill="none" xmlns="http://www.w3.org/2000/svg">
<path d="M52 26.9518C52 41.3112 40.3594 52.9518 26 52.9518C11.6406 52.9518 0 41.3112 0 26.9518C0 12.5923 11.6406 0.951752 26 0.951752C40.3594 0.951752 52 12.5923 52 26.9518Z" fill="#536F82"/>
<path d="M19.668 33.5728L8.03125 28.44V26.7643L19.668 20.9518V23.7643L11.6523 27.4791L19.668 30.7721V33.5728Z" fill="white"/>
<path d="M30.5312 18.8189L24.1445 35.9518H20.8984L27.2852 18.8189H30.5312Z" fill="white"/>
<path d="M31.6797 30.7721L39.6953 27.4791L31.6797 23.7643V20.9518L43.3164 26.7643V28.44L31.6797 33.5728V30.7721Z" fill="white"/>
</svg>
