<svg width="56" height="53" viewBox="0 0 56 53" fill="none" xmlns="http://www.w3.org/2000/svg">
<path d="M55.64 26.9518C55.64 41.3112 43.1846 52.9518 27.82 52.9518C12.4554 52.9518 0 41.3112 0 26.9518C0 12.5923 12.4554 0.951752 27.82 0.951752C43.1846 0.951752 55.64 12.5923 55.64 26.9518Z" fill="#536F82"/>
<path d="M34.3 21.5518C34.3 28.5105 28.513 34.1518 21.3745 34.1518C14.2359 34.1518 10 30.4092 10 23.4504C10 19.1353 15.5144 21.919 17.7553 19.6531C20.1063 17.2759 14.4809 9.64216 21.3745 8.95175C28.513 8.95175 34.3 14.593 34.3 21.5518Z" fill="white"/>
<path d="M27.0617 13.0942C27.0617 14.2381 26.1358 15.1655 24.9936 15.1655C23.8514 15.1655 22.9255 14.2381 22.9255 13.0942C22.9255 11.9503 23.8514 11.023 24.9936 11.023C26.1358 11.023 27.0617 11.9503 27.0617 13.0942Z" fill="#536F82"/>
<path d="M32.5766 19.3079C32.5766 20.4518 31.6507 21.3792 30.5085 21.3792C29.3663 21.3792 28.4404 20.4518 28.4404 19.3079C28.4404 18.164 29.3663 17.2367 30.5085 17.2367C31.6507 17.2367 32.5766 18.164 32.5766 19.3079Z" fill="#536F82"/>
<path d="M31.1979 26.7298C31.1979 27.9691 30.1948 28.9737 28.9574 28.9737C27.7201 28.9737 26.717 27.9691 26.717 26.7298C26.717 25.4906 27.7201 24.486 28.9574 24.486C30.1948 24.486 31.1979 25.4906 31.1979 26.7298Z" fill="#536F82"/>
<path d="M23.9596 30.5271C23.9596 31.7663 22.9565 32.7709 21.7191 32.7709C20.4818 32.7709 19.4787 31.7663 19.4787 30.5271C19.4787 29.2879 20.4818 28.2833 21.7191 28.2833C22.9565 28.2833 23.9596 29.2879 23.9596 30.5271Z" fill="#536F82"/>
<path d="M17.4106 27.075C17.4106 28.3143 16.4076 29.3189 15.1702 29.3189C13.9329 29.3189 12.9298 28.3143 12.9298 27.075C12.9298 25.8358 13.9329 24.8312 15.1702 24.8312C16.4076 24.8312 17.4106 25.8358 17.4106 27.075Z" fill="#536F82"/>
<path d="M27.5652 37.5127C22.6313 37.5127 23.6885 42.9397 19.9 44.2116C28.8868 47.2643 29.5036 39.887 29.5036 39.887C29.5916 38.6999 28.6225 37.5127 27.5652 37.5127Z" fill="white"/>
<path d="M28.1819 36.9192C32.5872 30.729 42.4551 23.6744 45.0983 23.3518C45.2745 25.5399 31.7632 39.5182 30.1203 39.2935C30.2083 38.1063 29.2392 36.9192 28.1819 36.9192Z" fill="white"/>
</svg>
